<svg id="visual" viewBox="0 0 960 540" width="960" height="540" xmlns="http://www.w3.org/2000/svg" xmlns:xlink="http://www.w3.org/1999/xlink" version="1.1"><rect x="0" y="0" width="960" height="540" fill="#002233"></rect><path d="M0 465L22.8 450.7C45.7 436.3 91.3 407.7 137 398.8C182.7 390 228.3 401 274 408.2C319.7 415.3 365.3 418.7 411.2 411.7C457 404.7 503 387.3 548.8 394.2C594.7 401 640.3 432 686 441.7C731.7 451.3 777.3 439.7 823 427.7C868.7 415.7 914.3 403.3 937.2 397.2L960 391L960 541L937.2 541C914.3 541 868.7 541 823 541C777.3 541 731.7 541 686 541C640.3 541 594.7 541 548.8 541C503 541 457 541 411.2 541C365.3 541 319.7 541 274 541C228.3 541 182.7 541 137 541C91.3 541 45.7 541 22.8 541L0 541Z" fill="#0066FF" stroke-linecap="round" stroke-linejoin="miter"></path></svg>