<!--?xml version="1.0" standalone="no"?-->
              <svg id="sw-js-blob-svg" viewBox="0 0 100 100" xmlns="http://www.w3.org/2000/svg" version="1.1">
                    <defs> 
                        <linearGradient id="sw-gradient" x1="0" x2="1" y1="1" y2="0">
                            <stop id="stop1" stop-color="rgba(255, 106.891, 36.793, 1)" offset="0%"></stop>
                            <stop id="stop2" stop-color="rgba(251, 168, 31, 1)" offset="100%"></stop>
                        </linearGradient>
                    </defs>
                <path fill="url(#sw-gradient)" d="M25.8,-30.8C33.2,-24.5,38.9,-16.2,40.9,-6.9C42.9,2.4,41.3,12.6,36.4,20.8C31.4,29,23.2,35.2,14.4,37.4C5.6,39.6,-3.8,37.9,-12.5,34.6C-21.2,31.3,-29.2,26.4,-34.9,18.9C-40.7,11.5,-44.2,1.6,-43.3,-8.4C-42.4,-18.3,-37.1,-28.1,-29.2,-34.3C-21.2,-40.5,-10.6,-42.9,-0.7,-42.1C9.2,-41.2,18.4,-37,25.8,-30.8Z" width="100%" height="100%" transform="translate(50 50)" stroke-width="0" style="transition: all 0.3s ease 0s;"></path>
              </svg>