<svg id="visual" viewBox="0 0 600 900" width="600" height="900" xmlns="http://www.w3.org/2000/svg" xmlns:xlink="http://www.w3.org/1999/xlink" version="1.1"><rect x="0" y="0" width="600" height="900" fill="#001220"></rect><defs><linearGradient id="grad1_0" x1="0%" y1="0%" x2="100%" y2="100%"><stop offset="30%" stop-color="#001220" stop-opacity="1"></stop><stop offset="70%" stop-color="#001220" stop-opacity="1"></stop></linearGradient></defs><defs><linearGradient id="grad2_0" x1="0%" y1="0%" x2="100%" y2="100%"><stop offset="30%" stop-color="#001220" stop-opacity="1"></stop><stop offset="70%" stop-color="#001220" stop-opacity="1"></stop></linearGradient></defs><g transform="translate(600, 0)"><path d="M0 486.7C-63.5 480 -127 473.2 -186.3 449.7C-245.5 426.2 -300.4 386.1 -336.6 336.6C-372.7 287.1 -390.1 228.3 -412.1 170.7C-434 113 -460.4 56.5 -486.7 0L0 0Z" fill="#3c4dfa"></path></g><g transform="translate(0, 900)"><path d="M0 -486.7C68.4 -485.3 136.8 -483.8 186.3 -449.7C235.8 -415.6 266.4 -348.8 297 -297C327.6 -245.2 358.2 -208.5 389.9 -161.5C421.5 -114.5 454.1 -57.3 486.7 0L0 0Z" fill="#3c4dfa"></path></g></svg>