<svg id="visual" viewBox="0 0 600 900" width="600" height="900" xmlns="http://www.w3.org/2000/svg" xmlns:xlink="http://www.w3.org/1999/xlink" version="1.1"><rect x="0" y="0" width="600" height="900" fill="#001220"></rect><g fill="none" stroke="#235aa6" stroke-width="2"><circle r="28" cx="75" cy="53"></circle><circle r="0" cx="97" cy="535"></circle><circle r="20" cx="492" cy="783"></circle><circle r="3" cx="403" cy="897"></circle><circle r="3" cx="259" cy="851"></circle><circle r="9" cx="146" cy="856"></circle><circle r="18" cx="559" cy="82"></circle><circle r="18" cx="19" cy="188"></circle><circle r="19" cx="346" cy="730"></circle><circle r="7" cx="240" cy="376"></circle><circle r="8" cx="409" cy="374"></circle><circle r="6" cx="299" cy="370"></circle><circle r="20" cx="54" cy="666"></circle><circle r="-1" cx="147" cy="116"></circle><circle r="19" cx="54" cy="750"></circle><circle r="26" cx="248" cy="435"></circle><circle r="22" cx="373" cy="180"></circle><circle r="6" cx="495" cy="24"></circle><circle r="18" cx="39" cy="828"></circle><circle r="23" cx="508" cy="155"></circle><circle r="11" cx="202" cy="879"></circle><circle r="8" cx="262" cy="116"></circle><circle r="13" cx="310" cy="300"></circle><circle r="1" cx="122" cy="296"></circle><circle r="0" cx="329" cy="800"></circle><circle r="3" cx="488" cy="697"></circle><circle r="6" cx="155" cy="522"></circle><circle r="19" cx="299" cy="213"></circle><circle r="10" cx="133" cy="447"></circle><circle r="3" cx="186" cy="691"></circle><circle r="4" cx="150" cy="616"></circle><circle r="23" cx="355" cy="601"></circle><circle r="5" cx="342" cy="866"></circle><circle r="15" cx="543" cy="740"></circle><circle r="-1" cx="416" cy="655"></circle><circle r="17" cx="50" cy="448"></circle><circle r="18" cx="216" cy="487"></circle><circle r="21" cx="184" cy="306"></circle><circle r="10" cx="407" cy="439"></circle><circle r="21" cx="277" cy="592"></circle><circle r="3" cx="194" cy="210"></circle><circle r="14" cx="429" cy="539"></circle><circle r="11" cx="322" cy="436"></circle><circle r="7" cx="521" cy="462"></circle><circle r="11" cx="543" cy="205"></circle><circle r="8" cx="464" cy="318"></circle></g></svg>