<svg id="visual" viewBox="0 0 1500 1000" width="1500" height="1000" xmlns="http://www.w3.org/2000/svg" xmlns:xlink="http://www.w3.org/1999/xlink" version="1.1"><rect x="0" y="0" width="1500" height="1000" fill="#001220"></rect><path d="M0 692L35.7 686C71.3 680 142.7 668 214.2 653.2C285.7 638.3 357.3 620.7 428.8 619.8C500.3 619 571.7 635 643 655.8C714.3 676.7 785.7 702.3 857 711.3C928.3 720.3 999.7 712.7 1071.2 711.7C1142.7 710.7 1214.3 716.3 1285.8 708.8C1357.3 701.3 1428.7 680.7 1464.3 670.3L1500 660L1500 1001L1464.3 1001C1428.7 1001 1357.3 1001 1285.8 1001C1214.3 1001 1142.7 1001 1071.2 1001C999.7 1001 928.3 1001 857 1001C785.7 1001 714.3 1001 643 1001C571.7 1001 500.3 1001 428.8 1001C357.3 1001 285.7 1001 214.2 1001C142.7 1001 71.3 1001 35.7 1001L0 1001Z" fill="#c62368"></path><path d="M0 687L35.7 685.8C71.3 684.7 142.7 682.3 214.2 689.8C285.7 697.3 357.3 714.7 428.8 715.5C500.3 716.3 571.7 700.7 643 689.7C714.3 678.7 785.7 672.3 857 672.7C928.3 673 999.7 680 1071.2 689.3C1142.7 698.7 1214.3 710.3 1285.8 706.5C1357.3 702.7 1428.7 683.3 1464.3 673.7L1500 664L1500 1001L1464.3 1001C1428.7 1001 1357.3 1001 1285.8 1001C1214.3 1001 1142.7 1001 1071.2 1001C999.7 1001 928.3 1001 857 1001C785.7 1001 714.3 1001 643 1001C571.7 1001 500.3 1001 428.8 1001C357.3 1001 285.7 1001 214.2 1001C142.7 1001 71.3 1001 35.7 1001L0 1001Z" fill="#d53867"></path><path d="M0 749L35.7 747C71.3 745 142.7 741 214.2 749.3C285.7 757.7 357.3 778.3 428.8 783C500.3 787.7 571.7 776.3 643 783.2C714.3 790 785.7 815 857 820C928.3 825 999.7 810 1071.2 802.5C1142.7 795 1214.3 795 1285.8 800.2C1357.3 805.3 1428.7 815.7 1464.3 820.8L1500 826L1500 1001L1464.3 1001C1428.7 1001 1357.3 1001 1285.8 1001C1214.3 1001 1142.7 1001 1071.2 1001C999.7 1001 928.3 1001 857 1001C785.7 1001 714.3 1001 643 1001C571.7 1001 500.3 1001 428.8 1001C357.3 1001 285.7 1001 214.2 1001C142.7 1001 71.3 1001 35.7 1001L0 1001Z" fill="#e34c67"></path><path d="M0 883L35.7 877.7C71.3 872.3 142.7 861.7 214.2 864.7C285.7 867.7 357.3 884.3 428.8 878.2C500.3 872 571.7 843 643 842.2C714.3 841.3 785.7 868.7 857 880.7C928.3 892.7 999.7 889.3 1071.2 887.5C1142.7 885.7 1214.3 885.3 1285.8 873.3C1357.3 861.3 1428.7 837.7 1464.3 825.8L1500 814L1500 1001L1464.3 1001C1428.7 1001 1357.3 1001 1285.8 1001C1214.3 1001 1142.7 1001 1071.2 1001C999.7 1001 928.3 1001 857 1001C785.7 1001 714.3 1001 643 1001C571.7 1001 500.3 1001 428.8 1001C357.3 1001 285.7 1001 214.2 1001C142.7 1001 71.3 1001 35.7 1001L0 1001Z" fill="#ef5f67"></path><path d="M0 886L35.7 894.7C71.3 903.3 142.7 920.7 214.2 930.8C285.7 941 357.3 944 428.8 944.8C500.3 945.7 571.7 944.3 643 937.8C714.3 931.3 785.7 919.7 857 913.5C928.3 907.3 999.7 906.7 1071.2 912.7C1142.7 918.7 1214.3 931.3 1285.8 935.7C1357.3 940 1428.7 936 1464.3 934L1500 932L1500 1001L1464.3 1001C1428.7 1001 1357.3 1001 1285.8 1001C1214.3 1001 1142.7 1001 1071.2 1001C999.7 1001 928.3 1001 857 1001C785.7 1001 714.3 1001 643 1001C571.7 1001 500.3 1001 428.8 1001C357.3 1001 285.7 1001 214.2 1001C142.7 1001 71.3 1001 35.7 1001L0 1001Z" fill="#fa7268"></path></svg>